<svg xmlns="http://www.w3.org/2000/svg" xmlns:xlink="http://www.w3.org/1999/xlink" width="490" height="305" contentScriptType="application/ecmascript" contentStyleType="text/css" style="width:490px;height:305px" preserveAspectRatio="none" version="1.1" viewBox="0 0 490 305" zoomAndPan="magnify"><defs><filter id="f1li33vimxy28n" width="300%" height="300%" x="-1" y="-1"><feGaussianBlur result="blurOut" stdDeviation="2"/><feColorMatrix in="blurOut" result="blurOut2" type="matrix" values="0 0 0 0 0 0 0 0 0 0 0 0 0 0 0 0 0 0 .4 0"/><feOffset dx="4" dy="4" in="blurOut2" result="blurOut3"/><feBlend in="SourceGraphic" in2="blurOut3" mode="normal"/></filter></defs><g><rect id="SpanProtocol" width="116" height="48" x="267" y="243" fill="#FEFECE" codeLine="2" filter="url(#f1li33vimxy28n)" style="stroke:#a80036;stroke-width:1.5"/><ellipse cx="282" cy="259" fill="#B4A7E5" rx="11" ry="11" style="stroke:#a80036;stroke-width:1"/><path fill="#000" d="M277.9219,254.7656 L277.9219,252.6094 L285.3125,252.6094 L285.3125,254.7656 L282.8438,254.7656 L282.8438,262.8438 L285.3125,262.8438 L285.3125,265 L277.9219,265 L277.9219,262.8438 L280.3906,262.8438 L280.3906,254.7656 L277.9219,254.7656 Z"/><text x="296" y="263.154" fill="#000" font-family="sans-serif" font-size="12" font-style="italic" lengthAdjust="spacing" textLength="84">SpanProtocol</text><line style="stroke:#a80036;stroke-width:1.5" x1="268" x2="382" y1="275" y2="275"/><line style="stroke:#a80036;stroke-width:1.5" x1="268" x2="382" y1="283" y2="283"/><rect id="UIViewControllerPerformanceTracker" width="260" height="48" x="7" y="7" fill="#FEFECE" codeLine="4" filter="url(#f1li33vimxy28n)" style="stroke:#a80036;stroke-width:1.5"/><ellipse cx="22" cy="23" fill="#ADD1B2" rx="11" ry="11" style="stroke:#a80036;stroke-width:1"/><path fill="#000" d="M24.9688,28.6406 Q24.3906,28.9375 23.75,29.0781 Q23.1094,29.2344 22.4063,29.2344 Q19.9063,29.2344 18.5781,27.5938 Q17.2656,25.9375 17.2656,22.8125 Q17.2656,19.6875 18.5781,18.0313 Q19.9063,16.375 22.4063,16.375 Q23.1094,16.375 23.75,16.5313 Q24.4063,16.6875 24.9688,16.9844 L24.9688,19.7031 Q24.3438,19.125 23.75,18.8594 Q23.1563,18.5781 22.5313,18.5781 Q21.1875,18.5781 20.5,19.6563 Q19.8125,20.7188 19.8125,22.8125 Q19.8125,24.9063 20.5,25.9844 Q21.1875,27.0469 22.5313,27.0469 Q23.1563,27.0469 23.75,26.7813 Q24.3438,26.5 24.9688,25.9219 L24.9688,28.6406 Z"/><text x="36" y="27.154" fill="#000" font-family="sans-serif" font-size="12" lengthAdjust="spacing" textLength="228">UIViewControllerPerformanceTracker</text><line style="stroke:#a80036;stroke-width:1.5" x1="8" x2="266" y1="39" y2="39"/><line style="stroke:#a80036;stroke-width:1.5" x1="8" x2="266" y1="47" y2="47"/><rect id="PerformanceTracker" width="159" height="48" x="82.5" y="125" fill="#FEFECE" codeLine="5" filter="url(#f1li33vimxy28n)" style="stroke:#a80036;stroke-width:1.5"/><ellipse cx="97.5" cy="141" fill="#ADD1B2" rx="11" ry="11" style="stroke:#a80036;stroke-width:1"/><path fill="#000" d="M100.4688,146.6406 Q99.8906,146.9375 99.25,147.0781 Q98.6094,147.2344 97.9063,147.2344 Q95.4063,147.2344 94.0781,145.5938 Q92.7656,143.9375 92.7656,140.8125 Q92.7656,137.6875 94.0781,136.0313 Q95.4063,134.375 97.9063,134.375 Q98.6094,134.375 99.25,134.5313 Q99.9063,134.6875 100.4688,134.9844 L100.4688,137.7031 Q99.8438,137.125 99.25,136.8594 Q98.6563,136.5781 98.0313,136.5781 Q96.6875,136.5781 96,137.6563 Q95.3125,138.7188 95.3125,140.8125 Q95.3125,142.9063 96,143.9844 Q96.6875,145.0469 98.0313,145.0469 Q98.6563,145.0469 99.25,144.7813 Q99.8438,144.5 100.4688,143.9219 L100.4688,146.6406 Z"/><text x="111.5" y="145.154" fill="#000" font-family="sans-serif" font-size="12" lengthAdjust="spacing" textLength="127">PerformanceTracker</text><line style="stroke:#a80036;stroke-width:1.5" x1="83.5" x2="240.5" y1="157" y2="157"/><line style="stroke:#a80036;stroke-width:1.5" x1="83.5" x2="240.5" y1="165" y2="165"/><rect id="Span" width="73" height="60.805" x="403.5" y="119" fill="#FEFECE" codeLine="6" filter="url(#f1li33vimxy28n)" style="stroke:#a80036;stroke-width:1.5"/><ellipse cx="422.55" cy="135" fill="#ADD1B2" rx="11" ry="11" style="stroke:#a80036;stroke-width:1"/><path fill="#000" d="M425.5188,140.6406 Q424.9406,140.9375 424.3,141.0781 Q423.6594,141.2344 422.9563,141.2344 Q420.4563,141.2344 419.1281,139.5938 Q417.8156,137.9375 417.8156,134.8125 Q417.8156,131.6875 419.1281,130.0313 Q420.4563,128.375 422.9563,128.375 Q423.6594,128.375 424.3,128.5313 Q424.9563,128.6875 425.5188,128.9844 L425.5188,131.7031 Q424.8938,131.125 424.3,130.8594 Q423.7063,130.5781 423.0813,130.5781 Q421.7375,130.5781 421.05,131.6563 Q420.3625,132.7188 420.3625,134.8125 Q420.3625,136.9063 421.05,137.9844 Q421.7375,139.0469 423.0813,139.0469 Q423.7063,139.0469 424.3,138.7813 Q424.8938,138.5 425.5188,137.9219 L425.5188,140.6406 Z"/><text x="437.45" y="139.154" fill="#000" font-family="sans-serif" font-size="12" lengthAdjust="spacing" textLength="32">Span</text><line style="stroke:#a80036;stroke-width:1.5" x1="404.5" x2="475.5" y1="151" y2="151"/><text x="409.5" y="165.21" fill="#000" font-family="sans-serif" font-size="11" lengthAdjust="spacing" textLength="61">timestamp</text><line style="stroke:#a80036;stroke-width:1.5" x1="404.5" x2="475.5" y1="171.805" y2="171.805"/><rect id="Tracer" width="72" height="48" x="302" y="7" fill="#FEFECE" codeLine="9" filter="url(#f1li33vimxy28n)" style="stroke:#a80036;stroke-width:1.5"/><ellipse cx="317" cy="23" fill="#ADD1B2" rx="11" ry="11" style="stroke:#a80036;stroke-width:1"/><path fill="#000" d="M319.9688,28.6406 Q319.3906,28.9375 318.75,29.0781 Q318.1094,29.2344 317.4063,29.2344 Q314.9063,29.2344 313.5781,27.5938 Q312.2656,25.9375 312.2656,22.8125 Q312.2656,19.6875 313.5781,18.0313 Q314.9063,16.375 317.4063,16.375 Q318.1094,16.375 318.75,16.5313 Q319.4063,16.6875 319.9688,16.9844 L319.9688,19.7031 Q319.3438,19.125 318.75,18.8594 Q318.1563,18.5781 317.5313,18.5781 Q316.1875,18.5781 315.5,19.6563 Q314.8125,20.7188 314.8125,22.8125 Q314.8125,24.9063 315.5,25.9844 Q316.1875,27.0469 317.5313,27.0469 Q318.1563,27.0469 318.75,26.7813 Q319.3438,26.5 319.9688,25.9219 L319.9688,28.6406 Z"/><text x="331" y="27.154" fill="#000" font-family="sans-serif" font-size="12" lengthAdjust="spacing" textLength="40">Tracer</text><line style="stroke:#a80036;stroke-width:1.5" x1="303" x2="373" y1="39" y2="39"/><line style="stroke:#a80036;stroke-width:1.5" x1="303" x2="373" y1="47" y2="47"/><path id="Span-to-SpanProtocol" fill="none" d="M406.7372,183.1305 C392.9518,197.2755 376.8915,213.7548 362.6739,228.3433" codeLine="11" style="stroke:#a80036;stroke-width:1"/><polygon fill="none" points="367.669 233.247 348.697 242.685 357.643 223.476 367.669 233.247" style="stroke:#a80036;stroke-width:1"/><path id="Tracer-to-SpanProtocol" fill="none" d="M328.5217,55.3673 C320.9988,94.7749 315.9902,173.0676 317.223,222.5862" codeLine="12" style="stroke:#a80036;stroke-width:1"/><polygon fill="none" points="324.224 222.445 318.217 242.765 310.241 223.134 324.224 222.445" style="stroke:#a80036;stroke-width:1"/><path id="Tracer-backto-SpanProtocol" fill="none" d="M346.1199,68.4453 C348.3279,117.3284 343.1623,201.5011 334.9305,242.7653" codeLine="16" style="stroke:#a80036;stroke-width:1"/><polygon fill="#A80036" points="345.272 55.367 341.669 61.613 346.048 67.342 349.652 61.096 345.272 55.367" style="stroke:#a80036;stroke-width:1"/><text x="338.07" y="75.218" fill="#000" font-family="sans-serif" font-size="13" lengthAdjust="spacing" textLength="8">1</text><text x="296.964" y="232.113" fill="#000" font-family="sans-serif" font-size="13" lengthAdjust="spacing" textLength="36">many</text><path id="UIViewControllerPerformanceTracker-backto-PerformanceTracker" fill="none" d="M144.8292,67.9537 C148.7629,86.5208 153.4174,108.4901 156.8874,124.8685" codeLine="14" style="stroke:#a80036;stroke-width:1"/><polygon fill="#A80036" points="142.119 55.164 139.45 61.863 144.607 66.903 147.276 60.204 142.119 55.164" style="stroke:#a80036;stroke-width:1"/><path id="PerformanceTracker-backto-SpanProtocol" fill="none" d="M206.0791,180.91 C233.0302,200.4206 266.9547,224.9795 291.6658,242.8685" codeLine="15" style="stroke:#a80036;stroke-width:1"/><polygon fill="#A80036" points="195.379 173.164 197.893 179.922 205.099 180.201 202.584 173.442 195.379 173.164" style="stroke:#a80036;stroke-width:1"/><text x="194.54" y="192.965" fill="#000" font-family="sans-serif" font-size="13" lengthAdjust="spacing" textLength="8">1</text><text x="242.511" y="231.847" fill="#000" font-family="sans-serif" font-size="13" lengthAdjust="spacing" textLength="36">many</text><path id="Tracer-Span" fill="none" d="M347.5887,55.1473 C362.8809,92.7424 392.2618,161 404,161" codeLine="17" style="stroke:#a80036;stroke-width:1"/><text x="357.604" y="74.944" fill="#000" font-family="sans-serif" font-size="13" lengthAdjust="spacing" textLength="63">observers</text></g></svg>