<svg xmlns="http://www.w3.org/2000/svg" xmlns:xlink="http://www.w3.org/1999/xlink" width="360" height="298" contentScriptType="application/ecmascript" contentStyleType="text/css" style="width:360px;height:298px" preserveAspectRatio="none" version="1.1" viewBox="0 0 360 298" zoomAndPan="magnify"><defs><filter id="f1mrdr8q458z4" width="300%" height="300%" x="-1" y="-1"><feGaussianBlur result="blurOut" stdDeviation="2"/><feColorMatrix in="blurOut" result="blurOut2" type="matrix" values="0 0 0 0 0 0 0 0 0 0 0 0 0 0 0 0 0 0 .4 0"/><feOffset dx="4" dy="4" in="blurOut2" result="blurOut3"/><feBlend in="SourceGraphic" in2="blurOut3" mode="normal"/></filter></defs><g><rect id="SpanProtocol" width="116" height="48" x="89" y="7" fill="#FEFECE" codeLine="2" filter="url(#f1mrdr8q458z4)" style="stroke:#a80036;stroke-width:1.5"/><ellipse cx="104" cy="23" fill="#B4A7E5" rx="11" ry="11" style="stroke:#a80036;stroke-width:1"/><path fill="#000" d="M99.9219,18.7656 L99.9219,16.6094 L107.3125,16.6094 L107.3125,18.7656 L104.8438,18.7656 L104.8438,26.8438 L107.3125,26.8438 L107.3125,29 L99.9219,29 L99.9219,26.8438 L102.3906,26.8438 L102.3906,18.7656 L99.9219,18.7656 Z"/><text x="118" y="27.154" fill="#000" font-family="sans-serif" font-size="12" font-style="italic" lengthAdjust="spacing" textLength="84">SpanProtocol</text><line style="stroke:#a80036;stroke-width:1.5" x1="90" x2="204" y1="39" y2="39"/><line style="stroke:#a80036;stroke-width:1.5" x1="90" x2="204" y1="47" y2="47"/><rect id="Span" width="73" height="60.805" x="56.5" y="115" fill="#FEFECE" codeLine="4" filter="url(#f1mrdr8q458z4)" style="stroke:#a80036;stroke-width:1.5"/><ellipse cx="75.55" cy="131" fill="#ADD1B2" rx="11" ry="11" style="stroke:#a80036;stroke-width:1"/><path fill="#000" d="M78.5188,136.6406 Q77.9406,136.9375 77.3,137.0781 Q76.6594,137.2344 75.9563,137.2344 Q73.4563,137.2344 72.1281,135.5938 Q70.8156,133.9375 70.8156,130.8125 Q70.8156,127.6875 72.1281,126.0313 Q73.4563,124.375 75.9563,124.375 Q76.6594,124.375 77.3,124.5313 Q77.9563,124.6875 78.5188,124.9844 L78.5188,127.7031 Q77.8938,127.125 77.3,126.8594 Q76.7063,126.5781 76.0813,126.5781 Q74.7375,126.5781 74.05,127.6563 Q73.3625,128.7188 73.3625,130.8125 Q73.3625,132.9063 74.05,133.9844 Q74.7375,135.0469 76.0813,135.0469 Q76.7063,135.0469 77.3,134.7813 Q77.8938,134.5 78.5188,133.9219 L78.5188,136.6406 Z"/><text x="90.45" y="135.154" fill="#000" font-family="sans-serif" font-size="12" lengthAdjust="spacing" textLength="32">Span</text><line style="stroke:#a80036;stroke-width:1.5" x1="57.5" x2="128.5" y1="147" y2="147"/><text x="62.5" y="161.21" fill="#000" font-family="sans-serif" font-size="11" lengthAdjust="spacing" textLength="61">timestamp</text><line style="stroke:#a80036;stroke-width:1.5" x1="57.5" x2="128.5" y1="167.805" y2="167.805"/><rect id="Tracer" width="72" height="48" x="180" y="121.5" fill="#FEFECE" codeLine="7" filter="url(#f1mrdr8q458z4)" style="stroke:#a80036;stroke-width:1.5"/><ellipse cx="195" cy="137.5" fill="#ADD1B2" rx="11" ry="11" style="stroke:#a80036;stroke-width:1"/><path fill="#000" d="M197.9688,143.1406 Q197.3906,143.4375 196.75,143.5781 Q196.1094,143.7344 195.4063,143.7344 Q192.9063,143.7344 191.5781,142.0938 Q190.2656,140.4375 190.2656,137.3125 Q190.2656,134.1875 191.5781,132.5313 Q192.9063,130.875 195.4063,130.875 Q196.1094,130.875 196.75,131.0313 Q197.4063,131.1875 197.9688,131.4844 L197.9688,134.2031 Q197.3438,133.625 196.75,133.3594 Q196.1563,133.0781 195.5313,133.0781 Q194.1875,133.0781 193.5,134.1563 Q192.8125,135.2188 192.8125,137.3125 Q192.8125,139.4063 193.5,140.4844 Q194.1875,141.5469 195.5313,141.5469 Q196.1563,141.5469 196.75,141.2813 Q197.3438,141 197.9688,140.4219 L197.9688,143.1406 Z"/><text x="209" y="141.654" fill="#000" font-family="sans-serif" font-size="12" lengthAdjust="spacing" textLength="40">Tracer</text><line style="stroke:#a80036;stroke-width:1.5" x1="181" x2="251" y1="153.5" y2="153.5"/><line style="stroke:#a80036;stroke-width:1.5" x1="181" x2="251" y1="161.5" y2="161.5"/><rect id="SpanContext" width="112" height="48" x="7" y="236" fill="#FEFECE" codeLine="8" filter="url(#f1mrdr8q458z4)" style="stroke:#a80036;stroke-width:1.5"/><ellipse cx="22" cy="252" fill="#ADD1B2" rx="11" ry="11" style="stroke:#a80036;stroke-width:1"/><path fill="#000" d="M24.9688,257.6406 Q24.3906,257.9375 23.75,258.0781 Q23.1094,258.2344 22.4063,258.2344 Q19.9063,258.2344 18.5781,256.5938 Q17.2656,254.9375 17.2656,251.8125 Q17.2656,248.6875 18.5781,247.0313 Q19.9063,245.375 22.4063,245.375 Q23.1094,245.375 23.75,245.5313 Q24.4063,245.6875 24.9688,245.9844 L24.9688,248.7031 Q24.3438,248.125 23.75,247.8594 Q23.1563,247.5781 22.5313,247.5781 Q21.1875,247.5781 20.5,248.6563 Q19.8125,249.7188 19.8125,251.8125 Q19.8125,253.9063 20.5,254.9844 Q21.1875,256.0469 22.5313,256.0469 Q23.1563,256.0469 23.75,255.7813 Q24.3438,255.5 24.9688,254.9219 L24.9688,257.6406 Z"/><text x="36" y="256.154" fill="#000" font-family="sans-serif" font-size="12" lengthAdjust="spacing" textLength="80">SpanContext</text><line style="stroke:#a80036;stroke-width:1.5" x1="8" x2="118" y1="268" y2="268"/><line style="stroke:#a80036;stroke-width:1.5" x1="8" x2="118" y1="276" y2="276"/><rect id="TransactionContext" width="154" height="48" x="154" y="236" fill="#FEFECE" codeLine="9" filter="url(#f1mrdr8q458z4)" style="stroke:#a80036;stroke-width:1.5"/><ellipse cx="169" cy="252" fill="#ADD1B2" rx="11" ry="11" style="stroke:#a80036;stroke-width:1"/><path fill="#000" d="M171.9688,257.6406 Q171.3906,257.9375 170.75,258.0781 Q170.1094,258.2344 169.4063,258.2344 Q166.9063,258.2344 165.5781,256.5938 Q164.2656,254.9375 164.2656,251.8125 Q164.2656,248.6875 165.5781,247.0313 Q166.9063,245.375 169.4063,245.375 Q170.1094,245.375 170.75,245.5313 Q171.4063,245.6875 171.9688,245.9844 L171.9688,248.7031 Q171.3438,248.125 170.75,247.8594 Q170.1563,247.5781 169.5313,247.5781 Q168.1875,247.5781 167.5,248.6563 Q166.8125,249.7188 166.8125,251.8125 Q166.8125,253.9063 167.5,254.9844 Q168.1875,256.0469 169.5313,256.0469 Q170.1563,256.0469 170.75,255.7813 Q171.3438,255.5 171.9688,254.9219 L171.9688,257.6406 Z"/><text x="183" y="256.154" fill="#000" font-family="sans-serif" font-size="12" lengthAdjust="spacing" textLength="122">TransactionContext</text><line style="stroke:#a80036;stroke-width:1.5" x1="155" x2="307" y1="268" y2="268"/><line style="stroke:#a80036;stroke-width:1.5" x1="155" x2="307" y1="276" y2="276"/><rect id="Transaction" width="106" height="48" x="240" y="7" fill="#FEFECE" codeLine="10" filter="url(#f1mrdr8q458z4)" style="stroke:#a80036;stroke-width:1.5"/><ellipse cx="255" cy="23" fill="#ADD1B2" rx="11" ry="11" style="stroke:#a80036;stroke-width:1"/><path fill="#000" d="M257.9688,28.6406 Q257.3906,28.9375 256.75,29.0781 Q256.1094,29.2344 255.4063,29.2344 Q252.9063,29.2344 251.5781,27.5938 Q250.2656,25.9375 250.2656,22.8125 Q250.2656,19.6875 251.5781,18.0313 Q252.9063,16.375 255.4063,16.375 Q256.1094,16.375 256.75,16.5313 Q257.4063,16.6875 257.9688,16.9844 L257.9688,19.7031 Q257.3438,19.125 256.75,18.8594 Q256.1563,18.5781 255.5313,18.5781 Q254.1875,18.5781 253.5,19.6563 Q252.8125,20.7188 252.8125,22.8125 Q252.8125,24.9063 253.5,25.9844 Q254.1875,27.0469 255.5313,27.0469 Q256.1563,27.0469 256.75,26.7813 Q257.3438,26.5 257.9688,25.9219 L257.9688,28.6406 Z"/><text x="269" y="27.154" fill="#000" font-family="sans-serif" font-size="12" lengthAdjust="spacing" textLength="74">Transaction</text><line style="stroke:#a80036;stroke-width:1.5" x1="241" x2="345" y1="39" y2="39"/><line style="stroke:#a80036;stroke-width:1.5" x1="241" x2="345" y1="47" y2="47"/><path id="SpanProtocol-backto-Span" fill="none" d="M127.0343,73.3346 C120.519,87.1495 113.4162,102.21 107.3929,114.9818" codeLine="12" style="stroke:#a80036;stroke-width:1"/><polygon fill="none" points="120.817 70.106 135.68 55.003 133.48 76.078 120.817 70.106" style="stroke:#a80036;stroke-width:1"/><path id="SpanProtocol-backto-Tracer" fill="none" d="M159.9092,72.8873 C168.7855,89.1117 180.1923,107.1137 190.659,121.1343" codeLine="13" style="stroke:#a80036;stroke-width:1"/><polygon fill="none" points="153.644 76.009 150.86 55.003 166.136 69.688 153.644 76.009" style="stroke:#a80036;stroke-width:1"/><path id="Tracer-backto-SpanProtocol" fill="none" d="M206.7844,109.1947 C197.596,91.4954 184.5853,70.6982 172.6936,55.003" codeLine="18" style="stroke:#a80036;stroke-width:1"/><polygon fill="#A80036" points="212.601 121.134 213.569 113.989 207.346 110.347 206.378 117.492 212.601 121.134" style="stroke:#a80036;stroke-width:1"/><text x="202.798" y="110.45" fill="#000" font-family="sans-serif" font-size="13" lengthAdjust="spacing" textLength="8">1</text><text x="138.665" y="75.16" fill="#000" font-family="sans-serif" font-size="13" lengthAdjust="spacing" textLength="36">many</text><path id="Tracer-backto-TransactionContext" fill="none" d="M220.8373,182.4245 C223.1203,199.8514 225.7816,220.1659 227.808,235.6343" codeLine="14" style="stroke:#a80036;stroke-width:1"/><polygon fill="#A80036" points="219.144 169.503 215.958 175.972 220.703 181.401 223.89 174.933 219.144 169.503" style="stroke:#a80036;stroke-width:1"/><path id="Span-backto-SpanContext" fill="none" d="M81.5964,189.0238 C77.4462,204.8636 72.9057,222.1932 69.3502,235.7634" codeLine="15" style="stroke:#a80036;stroke-width:1"/><polygon fill="#A80036" points="84.961 176.184 79.57 180.974 81.919 187.792 87.309 183.002 84.961 176.184" style="stroke:#a80036;stroke-width:1"/><path id="Transaction-backto-Tracer" fill="none" d="M269.5449,65.8781 C257.5311,83.7428 243.198,105.0563 232.3857,121.1343" codeLine="16" style="stroke:#a80036;stroke-width:1"/><polygon fill="#A80036" points="276.858 55.003 270.191 57.75 270.162 64.961 276.829 62.214 276.858 55.003" style="stroke:#a80036;stroke-width:1"/></g></svg>